PathFileType	4	(X/Y/Z)	./resultDataOpenSim/trcMotMarkerGrf/sub10/qtm-12-01.trc
DataRate	CameraRate	NumFrames	NumMarkers	Units	OrigDataRate	OrigDataStartFrame	OrigNumFrames
250.000000	250.000000	13	24	m	250.000000	407	465
Frame#	Time	L.Toe.Tip			R.Toe.Tip			L.Ankle.Lat			R.Ankle.Lat			L.Ankle.Med			R.Ankle.Med			L.Heel			R.Heel			L.Knee.Lat			R.Knee.Lat			L.Knee.Med			R.Knee.Med			L.Thigh.Upper			R.Thigh.Upper			L.ASIS			R.ASIS			V.Sacral			L.Acromium			R.Acromium			C7			L.Elbow			R.Elbow			L.Wrist.Lat			R.Wrist.Lat
		X1	Y1	Z1	X2	Y2	Z2	X3	Y3	Z3	X4	Y4	Z4	X5	Y5	Z5	X6	Y6	Z6	X7	Y7	Z7	X8	Y8	Z8	X9	Y9	Z9	X10	Y10	Z10	X11	Y11	Z11	X12	Y12	Z12	X13	Y13	Z13	X14	Y14	Z14	X15	Y15	Z15	X16	Y16	Z16	X17	Y17	Z17	X18	Y18	Z18	X19	Y19	Z19	X20	Y20	Z20	X21	Y21	Z21	X22	Y22	Z22	X23	Y23	Z23	X24	Y24	Z24

407	1.624	1.4566305	0.12506213	-0.13187127	0.81416092	0.037784548	0.0573758	1.3323706	0.090259927	-0.17756969	0.67185302	0.071572428	0.085485002	1.3248548	0.11281268	-0.096853169	0.70496528	0.092984645	0.0040539631	1.2866075	0.031101539	-0.14220657	0.62324402	0.053688782	0.035210547	1.1874092	0.4521452	-0.18911575	0.82584493	0.44824328	0.11743252	1.1975098	0.42578041	-0.069086253	0.85953017	0.43902165	-0.0064858103	1.045787	0.81342097	-0.22595699	0.92563811	0.8528307	0.14729979	1.082248	0.92465709	-0.14630594	1.0253273	0.93560707	0.097753182	0.86326499	0.93252188	-0.078141933	1.0158608	1.3984413	-0.17307412	0.98030832	1.3936097	0.14140565	0.91456885	1.4250324	-0.024599158	0.84787108	1.1166893	-0.26293768	0.96586776	1.0397007	0.24981153	0.87104671	0.88632885	-0.33021852	1.2195753	1.0298676	0.27450842
408	1.628	1.4665755	0.12623813	-0.13211121	0.81428145	0.037784359	0.057409773	1.3425013	0.090512427	-0.17747595	0.67234915	0.072779696	0.085603163	1.3348158	0.11320516	-0.096806001	0.70580613	0.093866326	0.0041695001	1.2972022	0.031069598	-0.14205572	0.62365628	0.055378667	0.035255393	1.194741	0.45134737	-0.18923315	0.82997524	0.44797211	0.11740846	1.2037581	0.42483089	-0.069311686	0.86398841	0.43864629	-0.0064216687	1.0528569	0.81193824	-0.22591507	0.93102352	0.85181065	0.14691905	1.0892297	0.92358039	-0.14625118	1.0311116	0.93447861	0.097816298	0.86986222	0.93109208	-0.078740363	1.0211295	1.3973637	-0.17383997	0.98611702	1.3926972	0.14064226	0.91999159	1.4238157	-0.025229085	0.85349546	1.1155348	-0.26394573	0.97315807	1.0388583	0.2494676	0.87635325	0.88527811	-0.33141593	1.2269502	1.0310318	0.27361625
409	1.632	1.4759475	0.12700326	-0.13246181	0.81441511	0.037788089	0.057456142	1.3519808	0.090553248	-0.17743096	0.67290268	0.07407813	0.085788345	1.3442291	0.11338447	-0.0967736	0.70667401	0.094818364	0.0042964102	1.3071042	0.030930036	-0.14202435	0.62410492	0.057180836	0.035361912	1.2020808	0.45058159	-0.18930533	0.83428621	0.44764987	0.11740733	1.2095004	0.42396857	-0.069552949	0.86865751	0.43821928	-0.0063350904	1.0599515	0.81046447	-0.22586184	0.93649853	0.85083419	0.14657567	1.0961995	0.92251388	-0.14622245	1.0370119	0.93333732	0.097892805	0.87643227	0.92960665	-0.079388834	1.0264282	1.3963242	-0.17463657	0.99202373	1.3917427	0.13980421	0.92544346	1.4226348	-0.025865311	0.85916896	1.1143774	-0.26493005	0.98032046	1.0379934	0.24900977	0.88181697	0.88423137	-0.33263053	1.2342329	1.0320919	0.27271615
410	1.636	1.4847277	0.1274048	-0.13288563	0.81456231	0.037797636	0.057515893	1.3608099	0.090377319	-0.17743098	0.67351911	0.075470464	0.086027313	1.3530741	0.11330212	-0.09675243	0.70758267	0.095840661	0.004442827	1.3162914	0.030625922	-0.14200644	0.62459257	0.059103837	0.035534498	1.2094195	0.4498534	-0.18934442	0.83876989	0.44728969	0.11742029	1.2149587	0.42319844	-0.069794406	0.87354244	0.43772364	-0.0062201444	1.0670727	0.80902242	-0.22581828	0.94203415	0.84989473	0.14622673	1.1031586	0.92145112	-0.1461841	1.0430672	0.93215911	0.097981926	0.88304051	0.9281645	-0.080053361	1.0317565	1.395326	-0.17546746	0.99810377	1.3907119	0.13885916	0.9309293	1.4214879	-0.026526873	0.86489144	1.1132274	-0.2658979	0.9873186	1.0370789	0.24839726	0.88744981	0.88318134	-0.33385744	1.2414387	1.0330352	0.2718134
411	1.64	1.4929238	0.12743499	-0.13339434	0.81472371	0.037812158	0.057584985	1.3689994	0.089982299	-0.17747675	0.67420495	0.07694447	0.086293877	1.3613265	0.11293531	-0.096750747	0.70853342	0.096937269	0.0046451543	1.3247579	0.030130308	-0.14195957	0.62513408	0.061143583	0.035764108	1.2167468	0.44916421	-0.18936375	0.84342672	0.44691246	0.11745042	1.2207318	0.42253935	-0.069996543	0.87863126	0.43714602	-0.0060668944	1.0742222	0.80764372	-0.22580631	0.94760873	0.84898572	0.1458383	1.1101212	0.92038041	-0.14611878	1.0492412	0.93095565	0.098073285	0.8897312	0.92686398	-0.080730463	1.0371074	1.3943737	-0.1763453	1.004322	1.3896323	0.13782236	0.93645616	1.4203676	-0.027245021	0.87066505	1.1120879	-0.26686895	0.99415471	1.0361208	0.24764985	0.89328048	0.88211864	-0.33510634	1.2485539	1.0338636	0.27090901
412	1.644	1.5005488	0.12705208	-0.13399688	0.81489836	0.037829512	0.057657314	1.3765666	0.08936569	-0.17757208	0.67497099	0.078489527	0.086575227	1.3689963	0.11228604	-0.096789763	0.70951677	0.098114322	0.0049413149	1.3325154	0.029449034	-0.14189148	0.62574166	0.063296524	0.036041636	1.2240762	0.4485203	-0.18935671	0.84826027	0.44653614	0.11750656	1.2272251	0.42199954	-0.07013282	0.88390548	0.43648234	-0.0058708776	1.0813946	0.80636959	-0.22584295	0.9532185	0.84810726	0.14539302	1.1170993	0.91930084	-0.14603701	1.0554372	0.92978229	0.09815682	0.89652076	0.92576311	-0.081423865	1.0424777	1.3934695	-0.17727805	1.0105144	1.3885906	0.13676196	0.94203152	1.4192723	-0.0280348	0.8764907	1.1109531	-0.26786082	1.0008713	1.0351598	0.24684834	0.89934295	0.88104177	-0.33639556	1.2555422	1.0346037	0.27000479
413	1.648	1.5076068	0.12621902	-0.13464953	0.81508337	0.03784778	0.057728552	1.383531	0.088525012	-0.17771188	0.6758302	0.080111186	0.08688295	1.376148	0.11135311	-0.096883888	0.71054116	0.099371626	0.005325136	1.3395868	0.028601365	-0.14182386	0.6264187	0.065569542	0.036362546	1.2314329	0.44793069	-0.18930414	0.85326489	0.44616714	0.11758903	1.2344328	0.42156503	-0.070202832	0.88934724	0.43573653	-0.005640386	1.088578	0.8052438	-0.22593934	0.95887463	0.84726383	0.14488937	1.1241007	0.91822498	-0.14595543	1.0615919	0.92868691	0.098232626	0.90341721	0.92489772	-0.082129581	1.0478732	1.3926093	-0.17826114	1.0165427	1.3876495	0.13573528	0.94765657	1.4182063	-0.028887304	0.88236488	1.1098158	-0.26887815	1.0075003	1.0342314	0.24605571	0.90562893	0.87996193	-0.33772445	1.2623811	1.0352807	0.26909961
414	1.652	1.514095	0.12489935	-0.13523661	0.81527684	0.037865565	0.057798034	1.3899136	0.087462998	-0.17787887	0.67678536	0.081824628	0.087233201	1.3828876	0.11011295	-0.097023962	0.71164069	0.10070327	0.0057436881	1.3460021	0.027597219	-0.14177272	0.62716599	0.06797453	0.036724085	1.2388166	0.4473958	-0.18919784	0.85841999	0.44579433	0.11767857	1.2423284	0.42122365	-0.070201418	0.89493973	0.43491689	-0.005389833	1.0957591	0.80430299	-0.22609993	0.96459668	0.84645963	0.14433572	1.1311297	0.9171724	-0.14588187	1.0677232	0.92767221	0.098308429	0.91041702	0.92428018	-0.082857253	1.0533048	1.3917842	-0.1792847	1.0224016	1.3868018	0.13474661	0.95332581	1.4171746	-0.0297865	0.88828327	1.1086742	-0.26990907	1.0140504	1.0333498	0.24526736	0.91207035	0.87889717	-0.33906563	1.269081	1.035897	0.2681883
415	1.656	1.5200218	0.12308422	-0.13566047	0.81548168	0.037882577	0.057867469	1.3957378	0.086192673	-0.17805345	0.67782607	0.083639763	0.087626354	1.3893364	0.10856186	-0.097178385	0.71284321	0.10210741	0.0061559181	1.3518014	0.026431708	-0.14173906	0.62799178	0.070516875	0.037123209	1.2461943	0.44690368	-0.18904839	0.86370262	0.44539416	0.11775108	1.2510417	0.42097272	-0.070109497	0.90066933	0.43403703	-0.0051237152	1.1029305	0.80356727	-0.22631852	0.97040653	0.84569473	0.14374547	1.1381882	0.91616341	-0.14581712	1.073884	0.92671703	0.098389433	0.9174774	0.92381398	-0.083640666	1.0587826	1.3909886	-0.18034301	1.0281663	1.3860135	0.13376855	0.95903467	1.4161782	-0.030726661	0.89424795	1.1075342	-0.27092805	1.0205419	1.0325233	0.24444769	0.91860016	0.87785938	-0.34039319	1.2756629	1.0364425	0.26726995
416	1.66	1.5254408	0.12087917	-0.13602612	0.81570629	0.037900163	0.057937721	1.4010304	0.084734686	-0.17822088	0.678945	0.085559014	0.088055831	1.3955527	0.10681791	-0.097301558	0.71415198	0.10358792	0.0065704667	1.3570308	0.025100317	-0.14170422	0.62891207	0.07319269	0.037554796	1.2535288	0.44643851	-0.18887612	0.86910647	0.44495199	0.11780444	1.2604588	0.42079312	-0.069927189	0.90652876	0.43311533	-0.0048362888	1.1100965	0.80303388	-0.22657853	0.97632016	0.84496057	0.14313174	1.1452771	0.91521581	-0.14575961	1.0801091	0.92580614	0.098472494	0.92451945	0.92328607	-0.084505535	1.0643154	1.3902255	-0.18143013	1.0339117	1.3852669	0.13277242	0.96478235	1.4152128	-0.031712153	0.90026627	1.1064042	-0.27191188	1.0269957	1.031752	0.24357557	0.92521114	0.87684964	-0.34170455	1.2821348	1.0369072	0.26635039
417	1.664	1.5304489	0.11852057	-0.13664664	0.81596017	0.037920058	0.058007165	1.4058236	0.083109198	-0.17836638	0.68014857	0.087582407	0.088522185	1.4014152	0.10511684	-0.097359046	0.71556425	0.1051469	0.0070189509	1.3617178	0.023633629	-0.14164183	0.62994287	0.075997515	0.038013072	1.2608025	0.445988	-0.18869998	0.87464066	0.44447811	0.11785721	1.26997	0.42064146	-0.06969307	0.9125147	0.4321691	-0.0045249708	1.117272	0.80267835	-0.22686319	0.98234018	0.84423915	0.14250031	1.1524023	0.91433795	-0.14570599	1.0864079	0.92493341	0.098545065	0.93147988	0.92255557	-0.085434045	1.0699088	1.3895	-0.18253621	1.039674	1.3845582	0.13174408	0.97056707	1.414272	-0.032748355	0.90634278	1.1052913	-0.27286399	1.0333981	1.0310188	0.24264671	0.93193633	0.87586447	-0.34301097	1.2884937	1.0372818	0.26543514
418	1.668	1.5350971	0.11620701	-0.13764687	0.81624821	0.037942937	0.058073477	1.4101572	0.081333747	-0.17847022	0.68144862	0.089706597	0.089025838	1.406682	0.10357986	-0.097353249	0.71708378	0.10678541	0.0075184647	1.3658379	0.022141031	-0.1415385	0.63109658	0.078935082	0.038497286	1.2680204	0.44554146	-0.18852943	0.88031139	0.44399664	0.11792546	1.2789621	0.4204852	-0.069456764	0.91862487	0.43120995	-0.004194229	1.1244736	0.80246372	-0.22716311	0.98845824	0.84351144	0.14184928	1.1595877	0.91352178	-0.14565216	1.0927809	0.9240959	0.098589214	0.93836219	0.92168988	-0.08636267	1.075558	1.388811	-0.18365804	1.0454497	1.3838865	0.13068526	0.97638365	1.4133529	-0.033837038	0.91247825	1.1041962	-0.27381433	1.0397138	1.0303046	0.24166061	0.93880296	0.87489996	-0.34432361	1.2947376	1.0375594	0.2645232
419	1.672	1.5393342	0.1139252	-0.13868163	0.81656883	0.037968825	0.058136844	1.4140765	0.079429507	-0.17851263	0.6828543	0.091926508	0.089561296	1.4112603	0.10205448	-0.097300059	0.71870973	0.10851159	0.008062096	1.3693153	0.020812393	-0.1414023	0.63238345	0.082015664	0.039008666	1.2752073	0.44508558	-0.1883587	0.88611687	0.44352152	0.11801417	1.2873438	0.42032608	-0.069246531	0.92485914	0.43024503	-0.0038489295	1.1317092	0.80235138	-0.22747131	0.99466658	0.84276639	0.14117626	1.1668581	0.91275902	-0.14559759	1.0992331	0.9232933	0.098592085	0.94522757	0.92084618	-0.087233242	1.0812508	1.3881516	-0.18480085	1.051224	1.3832519	0.12960056	0.98222859	1.4124563	-0.034975689	0.91867587	1.1031121	-0.27478206	1.0459219	1.0296041	0.24061796	0.94582115	0.87395083	-0.34565002	1.3008685	1.0377378	0.26361029
